<svg width="972" height="210" viewBox="0 0 972 210" fill="none" xmlns="http://www.w3.org/2000/svg">
<g clip-path="url(#clip0_1276_1266)" filter="url(#filter0_dd_1276_1266)">
<path d="M99.139 169.621C84.0848 169.621 70.7556 167.425 59.1513 163.035C47.5471 158.644 38.295 151.744 31.3952 142.335C24.6522 132.926 20.967 120.773 20.3398 105.876C20.183 99.4464 20.1045 92.5466 20.1045 85.1763C20.1045 77.806 20.183 70.7494 20.3398 64.0064C20.967 49.4226 24.7306 37.4263 31.6304 28.0175C38.687 18.6086 48.0175 11.6304 59.6218 7.08276C71.3828 2.53513 84.5552 0.261322 99.139 0.261322C109.175 0.261322 118.819 1.43743 128.071 3.78964C137.48 5.98505 145.948 9.51338 153.475 14.3746C161.002 19.2359 166.961 25.5084 171.352 33.1923C175.9 40.7194 178.252 49.8147 178.409 60.478C178.409 61.8894 177.86 63.1439 176.762 64.2416C175.821 65.1825 174.645 65.6529 173.234 65.6529H125.249C122.74 65.6529 120.858 65.1825 119.603 64.2416C118.506 63.1439 117.486 61.3405 116.545 58.8315C114.82 53.8134 112.468 50.4419 109.489 48.717C106.509 46.992 102.981 46.1295 98.9038 46.1295C93.7289 46.1295 89.5733 47.5409 86.437 50.3635C83.4575 53.0294 81.811 57.969 81.4974 65.1825C81.0269 78.0412 81.0269 91.2137 81.4974 104.7C81.811 111.913 83.4575 116.931 86.437 119.754C89.5733 122.42 93.7289 123.753 98.9038 123.753C102.981 123.753 106.509 122.812 109.489 120.93C112.625 119.048 114.977 115.755 116.545 111.051C117.329 108.385 118.349 106.581 119.603 105.641C120.858 104.7 122.74 104.229 125.249 104.229H173.234C174.645 104.229 175.821 104.778 176.762 105.876C177.86 106.817 178.409 107.993 178.409 109.404C178.252 120.067 175.9 129.241 171.352 136.925C166.961 144.452 161.002 150.646 153.475 155.508C145.948 160.369 137.48 163.976 128.071 166.328C118.819 168.523 109.175 169.621 99.139 169.621ZM203.436 167.269C201.711 167.269 200.221 166.72 198.966 165.622C197.712 164.368 197.085 162.799 197.085 160.918V8.96453C197.085 7.23957 197.712 5.74983 198.966 4.49531C200.221 3.24079 201.711 2.61354 203.436 2.61354H249.539C251.264 2.61354 252.754 3.24079 254.008 4.49531C255.263 5.74983 255.89 7.23957 255.89 8.96453V58.361H293.996V8.96453C293.996 7.23957 294.623 5.74983 295.878 4.49531C297.132 3.24079 298.622 2.61354 300.347 2.61354H346.45C348.175 2.61354 349.665 3.24079 350.92 4.49531C352.174 5.74983 352.801 7.23957 352.801 8.96453V160.918C352.801 162.643 352.174 164.132 350.92 165.387C349.665 166.641 348.175 167.269 346.45 167.269H300.347C298.622 167.269 297.132 166.641 295.878 165.387C294.623 164.132 293.996 162.643 293.996 160.918V110.11H255.89V160.918C255.89 162.643 255.263 164.132 254.008 165.387C252.754 166.641 251.264 167.269 249.539 167.269H203.436ZM385.135 167.269C383.41 167.269 381.921 166.641 380.666 165.387C379.412 164.132 378.784 162.643 378.784 160.918V8.96453C378.784 7.23957 379.412 5.74983 380.666 4.49531C381.921 3.24079 383.41 2.61354 385.135 2.61354H433.121C434.846 2.61354 436.335 3.24079 437.59 4.49531C438.844 5.74983 439.472 7.23957 439.472 8.96453V160.918C439.472 162.643 438.844 164.132 437.59 165.387C436.335 166.641 434.846 167.269 433.121 167.269H385.135ZM471.736 167.269C470.011 167.269 468.521 166.641 467.266 165.387C466.012 164.132 465.385 162.643 465.385 160.918V8.96453C465.385 7.23957 466.012 5.74983 467.266 4.49531C468.521 3.24079 470.011 2.61354 471.736 2.61354H519.721C521.446 2.61354 522.935 3.24079 524.19 4.49531C525.445 5.74983 526.072 7.23957 526.072 8.96453V160.918C526.072 162.643 525.445 164.132 524.19 165.387C522.935 166.641 521.446 167.269 519.721 167.269H471.736ZM620.667 169.621C603.261 169.621 588.912 167.269 577.621 162.564C566.331 157.86 557.863 151.666 552.217 143.982C546.572 136.298 543.593 128.143 543.279 119.519C543.279 118.107 543.749 116.931 544.69 115.99C545.788 114.893 547.043 114.344 548.454 114.344H593.146C595.655 114.344 597.537 114.736 598.791 115.52C600.203 116.147 601.692 117.088 603.26 118.343C604.829 119.44 606.397 120.46 607.965 121.4C609.69 122.184 611.572 122.812 613.61 123.282C615.806 123.596 618.158 123.753 620.667 123.753C625.999 123.753 630.233 123.204 633.369 122.106C636.662 120.852 638.309 119.205 638.309 117.166C638.309 115.285 637.368 113.717 635.486 112.462C633.761 111.207 630.703 110.11 626.312 109.169C621.922 108.071 615.806 107.052 607.965 106.111C595.577 104.386 584.835 101.485 575.74 97.4078C566.644 93.3307 559.588 87.7637 554.57 80.7071C549.708 73.4936 547.278 64.712 547.278 54.3623C547.278 43.6989 550.257 34.29 556.216 26.1357C562.332 17.9814 570.722 11.6304 581.385 7.08276C592.205 2.53513 604.75 0.261322 619.02 0.261322C630.781 0.261322 641.21 1.82946 650.305 4.96575C659.4 7.94523 667.084 11.944 673.357 16.9621C679.629 21.8233 684.412 27.0766 687.705 32.7219C690.998 38.3672 692.723 43.7773 692.88 48.9522C692.88 50.3635 692.331 51.618 691.233 52.7157C690.292 53.6566 689.195 54.1271 687.94 54.1271H640.896C638.701 54.1271 636.897 53.8134 635.486 53.1862C634.231 52.5589 632.898 51.618 631.487 50.3635C630.703 49.5794 629.213 48.717 627.018 47.7761C624.979 46.6784 622.313 46.1295 619.02 46.1295C615.1 46.1295 612.199 46.7568 610.317 48.0113C608.592 49.109 607.73 50.6771 607.73 52.7157C607.73 54.1271 608.435 55.46 609.847 56.7145C611.258 57.969 613.846 59.0667 617.609 60.0076C621.373 60.9485 626.783 61.8894 633.839 62.8303C649.521 64.712 662.066 67.7699 671.475 72.0039C681.04 76.0811 687.94 81.5696 692.174 88.4694C696.565 95.3692 698.76 103.916 698.76 114.109C698.76 125.556 695.311 135.435 688.411 143.746C681.668 152.058 672.416 158.487 660.655 163.035C648.894 167.425 635.564 169.621 620.667 169.621ZM705.477 167.269C704.066 167.269 702.812 166.798 701.714 165.857C700.773 164.76 700.302 163.505 700.302 162.094C700.302 161.467 700.381 160.918 700.538 160.447L752.992 10.3759C753.463 8.6509 754.56 6.92594 756.285 5.20098C758.01 3.47601 760.441 2.61354 763.577 2.61354H814.62C817.756 2.61354 820.187 3.47601 821.912 5.20098C823.637 6.92594 824.735 8.6509 825.205 10.3759L877.659 160.447C877.816 160.918 877.895 161.467 877.895 162.094C877.895 163.505 877.346 164.76 876.248 165.857C875.307 166.798 874.131 167.269 872.72 167.269H829.204C826.224 167.269 824.029 166.641 822.618 165.387C821.363 163.976 820.501 162.643 820.03 161.388L814.385 145.863H763.812L758.167 161.388C757.697 162.643 756.834 163.976 755.58 165.387C754.325 166.641 752.13 167.269 748.993 167.269H705.477ZM775.809 99.9953H802.389L788.981 56.2441L775.809 99.9953ZM897.157 167.269C895.432 167.269 893.942 166.641 892.688 165.387C891.433 164.132 890.806 162.643 890.806 160.918V8.96453C890.806 7.23957 891.433 5.74983 892.688 4.49531C893.942 3.24079 895.432 2.61354 897.157 2.61354H945.142C946.867 2.61354 948.357 3.24079 949.611 4.49531C950.866 5.74983 951.493 7.23957 951.493 8.96453V160.918C951.493 162.643 950.866 164.132 949.611 165.387C948.357 166.641 946.867 167.269 945.142 167.269H897.157Z" fill="#006D77"/>
</g>
<defs>
<filter id="filter0_dd_1276_1266" x="0" y="0" width="972" height="209.882" filterUnits="userSpaceOnUse" color-interpolation-filters="sRGB">
<feFlood flood-opacity="0" result="BackgroundImageFix"/>
<feColorMatrix in="SourceAlpha" type="matrix" values="0 0 0 0 0 0 0 0 0 0 0 0 0 0 0 0 0 0 127 0" result="hardAlpha"/>
<feMorphology radius="5" operator="erode" in="SourceAlpha" result="effect1_dropShadow_1276_1266"/>
<feOffset dy="10"/>
<feGaussianBlur stdDeviation="5"/>
<feColorMatrix type="matrix" values="0 0 0 0 0 0 0 0 0 0 0 0 0 0 0 0 0 0 0.04 0"/>
<feBlend mode="normal" in2="BackgroundImageFix" result="effect1_dropShadow_1276_1266"/>
<feColorMatrix in="SourceAlpha" type="matrix" values="0 0 0 0 0 0 0 0 0 0 0 0 0 0 0 0 0 0 127 0" result="hardAlpha"/>
<feMorphology radius="5" operator="erode" in="SourceAlpha" result="effect2_dropShadow_1276_1266"/>
<feOffset dy="20"/>
<feGaussianBlur stdDeviation="12.5"/>
<feColorMatrix type="matrix" values="0 0 0 0 0 0 0 0 0 0 0 0 0 0 0 0 0 0 0.1 0"/>
<feBlend mode="normal" in2="effect1_dropShadow_1276_1266" result="effect2_dropShadow_1276_1266"/>
<feBlend mode="normal" in="SourceGraphic" in2="effect2_dropShadow_1276_1266" result="shape"/>
</filter>
<clipPath id="clip0_1276_1266">
<rect width="932" height="169.882" fill="white" transform="translate(20)"/>
</clipPath>
</defs>
</svg>
