<svg width="1783" height="325" viewBox="0 0 1783 325" fill="none" xmlns="http://www.w3.org/2000/svg">
<path d="M151.4 324.5C122.6 324.5 97.1 320.3 74.9 311.9C52.7 303.5 35 290.3 21.8 272.3C8.9 254.3 1.85 231.05 0.65 202.55C0.350001 190.25 0.200001 177.05 0.200001 162.95C0.200001 148.85 0.350001 135.35 0.65 122.45C1.85 94.55 9.05 71.6 22.25 53.6C35.75 35.6 53.6 22.25 75.8 13.55C98.3 4.84998 123.5 0.499983 151.4 0.499983C170.6 0.499983 189.05 2.74998 206.75 7.24998C224.75 11.45 240.95 18.2 255.35 27.5C269.75 36.8 281.15 48.8 289.55 63.5C298.25 77.9 302.75 95.3 303.05 115.7C303.05 118.4 302 120.8 299.9 122.9C298.1 124.7 295.85 125.6 293.15 125.6H201.35C196.55 125.6 192.95 124.7 190.55 122.9C188.45 120.8 186.5 117.35 184.7 112.55C181.4 102.95 176.9 96.5 171.2 93.2C165.5 89.9 158.75 88.25 150.95 88.25C141.05 88.25 133.1 90.95 127.1 96.35C121.4 101.45 118.25 110.9 117.65 124.7C116.75 149.3 116.75 174.5 117.65 200.3C118.25 214.1 121.4 223.7 127.1 229.1C133.1 234.2 141.05 236.75 150.95 236.75C158.75 236.75 165.5 234.95 171.2 231.35C177.2 227.75 181.7 221.45 184.7 212.45C186.2 207.35 188.15 203.9 190.55 202.1C192.95 200.3 196.55 199.4 201.35 199.4H293.15C295.85 199.4 298.1 200.45 299.9 202.55C302 204.35 303.05 206.6 303.05 209.3C302.75 229.7 298.25 247.25 289.55 261.95C281.15 276.35 269.75 288.2 255.35 297.5C240.95 306.8 224.75 313.7 206.75 318.2C189.05 322.4 170.6 324.5 151.4 324.5ZM350.929 320C347.629 320 344.779 318.95 342.379 316.85C339.979 314.45 338.779 311.45 338.779 307.85V17.15C338.779 13.85 339.979 11 342.379 8.59999C344.779 6.19998 347.629 4.99998 350.929 4.99998H439.129C442.429 4.99998 445.279 6.19998 447.679 8.59999C450.079 11 451.279 13.85 451.279 17.15V111.65H524.179V17.15C524.179 13.85 525.379 11 527.779 8.59999C530.179 6.19998 533.029 4.99998 536.329 4.99998H624.529C627.829 4.99998 630.679 6.19998 633.079 8.59999C635.479 11 636.679 13.85 636.679 17.15V307.85C636.679 311.15 635.479 314 633.079 316.4C630.679 318.8 627.829 320 624.529 320H536.329C533.029 320 530.179 318.8 527.779 316.4C525.379 314 524.179 311.15 524.179 307.85V210.65H451.279V307.85C451.279 311.15 450.079 314 447.679 316.4C445.279 318.8 442.429 320 439.129 320H350.929ZM698.537 320C695.237 320 692.387 318.8 689.987 316.4C687.587 314 686.387 311.15 686.387 307.85V17.15C686.387 13.85 687.587 11 689.987 8.59999C692.387 6.19998 695.237 4.99998 698.537 4.99998H790.337C793.637 4.99998 796.487 6.19998 798.887 8.59999C801.287 11 802.487 13.85 802.487 17.15V307.85C802.487 311.15 801.287 314 798.887 316.4C796.487 318.8 793.637 320 790.337 320H698.537ZM864.211 320C860.911 320 858.061 318.8 855.661 316.4C853.261 314 852.061 311.15 852.061 307.85V17.15C852.061 13.85 853.261 11 855.661 8.59999C858.061 6.19998 860.911 4.99998 864.211 4.99998H956.011C959.311 4.99998 962.161 6.19998 964.561 8.59999C966.961 11 968.161 13.85 968.161 17.15V307.85C968.161 311.15 966.961 314 964.561 316.4C962.161 318.8 959.311 320 956.011 320H864.211ZM1149.13 324.5C1115.83 324.5 1088.38 320 1066.78 311C1045.18 302 1028.98 290.15 1018.18 275.45C1007.38 260.75 1001.68 245.15 1001.08 228.65C1001.08 225.95 1001.98 223.7 1003.78 221.9C1005.88 219.8 1008.28 218.75 1010.98 218.75H1096.48C1101.28 218.75 1104.88 219.5 1107.28 221C1109.98 222.2 1112.83 224 1115.83 226.4C1118.83 228.5 1121.83 230.45 1124.83 232.25C1128.13 233.75 1131.73 234.95 1135.63 235.85C1139.83 236.45 1144.33 236.75 1149.13 236.75C1159.33 236.75 1167.43 235.7 1173.43 233.6C1179.73 231.2 1182.88 228.05 1182.88 224.15C1182.88 220.55 1181.08 217.55 1177.48 215.15C1174.18 212.75 1168.33 210.65 1159.93 208.85C1151.53 206.75 1139.83 204.8 1124.83 203C1101.13 199.7 1080.58 194.15 1063.18 186.35C1045.78 178.55 1032.28 167.9 1022.68 154.4C1013.38 140.6 1008.73 123.8 1008.73 104C1008.73 83.6 1014.43 65.6 1025.83 50C1037.53 34.4 1053.58 22.25 1073.98 13.55C1094.68 4.84998 1118.68 0.499983 1145.98 0.499983C1168.48 0.499983 1188.43 3.49998 1205.83 9.49997C1223.23 15.2 1237.93 22.85 1249.93 32.45C1261.93 41.75 1271.08 51.8 1277.38 62.6C1283.68 73.4 1286.98 83.75 1287.28 93.65C1287.28 96.35 1286.23 98.75 1284.13 100.85C1282.33 102.65 1280.23 103.55 1277.83 103.55H1187.83C1183.63 103.55 1180.18 102.95 1177.48 101.75C1175.08 100.55 1172.53 98.75 1169.83 96.35C1168.33 94.85 1165.48 93.2 1161.28 91.4C1157.38 89.3 1152.28 88.25 1145.98 88.25C1138.48 88.25 1132.93 89.45 1129.33 91.85C1126.03 93.95 1124.38 96.95 1124.38 100.85C1124.38 103.55 1125.73 106.1 1128.43 108.5C1131.13 110.9 1136.08 113 1143.28 114.8C1150.48 116.6 1160.83 118.4 1174.33 120.2C1204.33 123.8 1228.33 129.65 1246.33 137.75C1264.63 145.55 1277.83 156.05 1285.93 169.25C1294.33 182.45 1298.53 198.8 1298.53 218.3C1298.53 240.2 1291.93 259.1 1278.73 275C1265.83 290.9 1248.13 303.2 1225.63 311.9C1203.13 320.3 1177.63 324.5 1149.13 324.5ZM1311.38 320C1308.68 320 1306.28 319.1 1304.18 317.3C1302.38 315.2 1301.48 312.8 1301.48 310.1C1301.48 308.9 1301.63 307.85 1301.93 306.95L1402.28 19.85C1403.18 16.55 1405.28 13.25 1408.58 9.95C1411.88 6.64998 1416.53 4.99998 1422.53 4.99998H1520.18C1526.18 4.99998 1530.83 6.64998 1534.13 9.95C1537.43 13.25 1539.53 16.55 1540.43 19.85L1640.78 306.95C1641.08 307.85 1641.23 308.9 1641.23 310.1C1641.23 312.8 1640.18 315.2 1638.08 317.3C1636.28 319.1 1634.03 320 1631.33 320H1548.08C1542.38 320 1538.18 318.8 1535.48 316.4C1533.08 313.7 1531.43 311.15 1530.53 308.75L1519.73 279.05H1422.98L1412.18 308.75C1411.28 311.15 1409.63 313.7 1407.23 316.4C1404.83 318.8 1400.63 320 1394.63 320H1311.38ZM1445.93 191.3H1496.78L1471.13 107.6L1445.93 191.3ZM1678.08 320C1674.78 320 1671.93 318.8 1669.53 316.4C1667.13 314 1665.93 311.15 1665.93 307.85V17.15C1665.93 13.85 1667.13 11 1669.53 8.59999C1671.93 6.19998 1674.78 4.99998 1678.08 4.99998H1769.88C1773.18 4.99998 1776.03 6.19998 1778.43 8.59999C1780.83 11 1782.03 13.85 1782.03 17.15V307.85C1782.03 311.15 1780.83 314 1778.43 316.4C1776.03 318.8 1773.18 320 1769.88 320H1678.08Z" fill="#006D77"/>
</svg>
