<svg width="85" height="29" viewBox="0 0 85 29" fill="none" xmlns="http://www.w3.org/2000/svg">
<path d="M0 6.5C0 3.18629 2.68629 0.5 6 0.5H79C82.3137 0.5 85 3.18629 85 6.5V22.5C85 25.8137 82.3137 28.5 79 28.5H6C2.68629 28.5 0 25.8137 0 22.5V6.5Z" fill="#006D77"/>
<path d="M26.218 7.81V18.646C26.218 18.926 26.106 19.024 25.798 19.024C25.504 19.038 24.454 19.052 23.53 18.996C23.796 19.458 24.118 20.256 24.202 20.746C25.574 20.76 26.54 20.704 27.184 20.424C27.828 20.158 28.066 19.696 28.066 18.66V7.81H26.218ZM29.592 11.492C30.698 13.55 31.762 16.196 32.056 17.89L33.89 17.162C33.54 15.412 32.378 12.85 31.23 10.876L29.592 11.492ZM22.55 11.016C22.256 12.85 21.542 15.314 20.408 16.742C20.87 16.924 21.64 17.316 22.046 17.624C23.222 16.07 23.992 13.452 24.468 11.338L22.55 11.016ZM42.584 9.574C42.752 10.036 42.948 10.68 43.256 11.45C43.69 12.612 44.306 13.788 44.81 14.614C44.376 14.572 43.452 14.502 42.766 14.432L42.626 15.916C43.802 16.014 45.58 16.196 46.364 16.35L47.218 15.104C46.966 14.81 46.714 14.516 46.476 14.166C46.014 13.522 45.356 12.318 44.922 11.142C44.586 10.246 44.25 9.14 44.04 8.062L42.15 8.286C42.318 8.748 42.486 9.252 42.584 9.574ZM37.488 10.232L37.516 12.01C40.386 12.248 42.598 12.192 44.46 11.968C45.58 11.842 46.784 11.632 47.708 11.366L47.498 9.616C46.392 9.952 45.16 10.19 43.914 10.344C42.234 10.526 40.106 10.54 37.488 10.232ZM40.302 14.992L38.552 14.586C38.076 15.538 37.81 16.336 37.81 17.19C37.81 19.22 39.602 20.326 42.472 20.326C44.166 20.326 45.426 20.144 46.224 20.004L46.322 18.226C45.342 18.422 44.11 18.576 42.584 18.576C40.666 18.562 39.616 18.072 39.616 16.882C39.616 16.28 39.84 15.664 40.302 14.992ZM54.526 9.504L52.37 9.476C52.468 9.91 52.482 10.512 52.482 10.89C52.482 11.744 52.496 13.396 52.636 14.684C53.028 18.436 54.358 19.808 55.912 19.808C57.032 19.808 57.9 18.968 58.838 16.518L57.424 14.824C57.158 15.93 56.612 17.582 55.94 17.582C55.058 17.582 54.638 16.196 54.442 14.18C54.358 13.158 54.358 12.122 54.358 11.212C54.358 10.82 54.428 9.994 54.526 9.504ZM61.526 9.812L59.748 10.4C61.274 12.136 62.03 15.524 62.24 17.792L64.088 17.064C63.934 14.922 62.856 11.422 61.526 9.812Z" fill="white"/>
<path d="M26.218 7.81V7.56H25.968V7.81H26.218ZM25.798 19.024V18.7737L25.7861 18.7743L25.798 19.024ZM23.53 18.996L23.5451 18.7465L23.0817 18.7184L23.3133 19.1207L23.53 18.996ZM24.202 20.746L23.9556 20.7882L23.9908 20.9939L24.1994 20.996L24.202 20.746ZM27.184 20.424L27.0885 20.1929L27.0843 20.1947L27.184 20.424ZM28.066 7.81H28.316V7.56H28.066V7.81ZM29.592 11.492L29.504 11.258L29.2365 11.3586L29.3718 11.6103L29.592 11.492ZM32.056 17.89L31.8097 17.9327L31.8623 18.2359L32.1482 18.1224L32.056 17.89ZM33.89 17.162L33.9822 17.3944L34.176 17.3174L34.1351 17.113L33.89 17.162ZM31.23 10.876L31.4461 10.7503L31.3398 10.5676L31.142 10.642L31.23 10.876ZM22.55 11.016L22.5914 10.7695L22.343 10.7278L22.3032 10.9764L22.55 11.016ZM20.408 16.742L20.2122 16.5865L20.0023 16.8509L20.3164 16.9746L20.408 16.742ZM22.046 17.624L21.8949 17.8232L22.0943 17.9744L22.2454 17.7749L22.046 17.624ZM24.468 11.338L24.7119 11.3929L24.7699 11.1352L24.5094 11.0915L24.468 11.338ZM25.968 7.81V18.646H26.468V7.81H25.968ZM25.968 18.646C25.968 18.7622 25.9431 18.766 25.9568 18.7537C25.9609 18.7501 25.9576 18.7556 25.9325 18.7619C25.9058 18.7686 25.8635 18.774 25.798 18.774V19.274C25.965 19.274 26.1514 19.2505 26.2902 19.1263C26.4369 18.995 26.468 18.8098 26.468 18.646H25.968ZM25.7861 18.7743C25.5003 18.7879 24.4594 18.8019 23.5451 18.7465L23.5149 19.2455C24.4486 19.3021 25.5077 19.2881 25.8099 19.2737L25.7861 18.7743ZM23.3133 19.1207C23.5693 19.5653 23.8779 20.3353 23.9556 20.7882L24.4484 20.7038C24.3581 20.1767 24.0227 19.3507 23.7467 18.8713L23.3133 19.1207ZM24.1994 20.996C25.5623 21.0099 26.5828 20.958 27.2837 20.6533L27.0843 20.1947C26.4972 20.45 25.5857 20.5101 24.2046 20.496L24.1994 20.996ZM27.2794 20.6551C27.6435 20.5047 27.917 20.2867 28.0898 19.9431C28.2562 19.6124 28.316 19.1908 28.316 18.66H27.816C27.816 19.1652 27.7568 19.4926 27.6432 19.7184C27.536 19.9313 27.3685 20.0773 27.0886 20.1929L27.2794 20.6551ZM28.316 18.66V7.81H27.816V18.66H28.316ZM28.066 7.56H26.218V8.06H28.066V7.56ZM29.3718 11.6103C30.4722 13.6579 31.5223 16.2767 31.8097 17.9327L32.3023 17.8473C32.0017 16.1153 30.9238 13.4421 29.8122 11.3737L29.3718 11.6103ZM32.1482 18.1224L33.9822 17.3944L33.7978 16.9296L31.9638 17.6576L32.1482 18.1224ZM34.1351 17.113C33.7771 15.3229 32.5991 12.7329 31.4461 10.7503L31.0139 11.0017C32.1569 12.9671 33.3029 15.5011 33.6449 17.211L34.1351 17.113ZM31.142 10.642L29.504 11.258L29.68 11.726L31.318 11.11L31.142 10.642ZM22.3032 10.9764C22.011 12.7992 21.3051 15.2103 20.2122 16.5865L20.6038 16.8975C21.7789 15.4177 22.501 12.9008 22.7968 11.0556L22.3032 10.9764ZM20.3164 16.9746C20.7658 17.1517 21.5133 17.5337 21.8949 17.8232L22.1971 17.4248C21.7667 17.0983 20.9742 16.6963 20.4996 16.5094L20.3164 16.9746ZM22.2454 17.7749C23.4576 16.173 24.2362 13.5054 24.7119 11.3929L24.2241 11.2831C23.7478 13.3986 22.9864 15.967 21.8466 17.4731L22.2454 17.7749ZM24.5094 11.0915L22.5914 10.7695L22.5086 11.2625L24.4266 11.5845L24.5094 11.0915ZM42.584 9.574L42.3445 9.64689L42.3491 9.65943L42.584 9.574ZM43.256 11.45L43.4903 11.3625L43.4881 11.3572L43.256 11.45ZM44.81 14.614L44.7859 14.8628L45.2841 14.9111L45.0234 14.4838L44.81 14.614ZM42.766 14.432L42.7914 14.1833L42.5408 14.1577L42.5171 14.4085L42.766 14.432ZM42.626 15.916L42.3771 15.8925L42.3534 16.1441L42.6052 16.1651L42.626 15.916ZM46.364 16.35L46.3158 16.5953L46.4772 16.627L46.5702 16.4913L46.364 16.35ZM47.218 15.104L47.4242 15.2453L47.5327 15.087L47.4078 14.9413L47.218 15.104ZM46.476 14.166L46.6828 14.0254L46.6791 14.0203L46.476 14.166ZM44.922 11.142L45.1565 11.0554L45.1561 11.0542L44.922 11.142ZM44.04 8.062L44.2854 8.0142L44.241 7.78643L44.0106 7.81374L44.04 8.062ZM42.15 8.286L42.1206 8.03774L41.8072 8.07488L41.9151 8.37143L42.15 8.286ZM37.488 10.232L37.5172 9.98371L37.2335 9.95034L37.238 10.2359L37.488 10.232ZM37.516 12.01L37.266 12.0139L37.2696 12.2404L37.4953 12.2591L37.516 12.01ZM44.46 11.968L44.4321 11.7196L44.4301 11.7198L44.46 11.968ZM47.708 11.366L47.7772 11.6062L47.9816 11.5474L47.9562 11.3362L47.708 11.366ZM47.498 9.616L47.7462 9.58621L47.7107 9.2901L47.4253 9.37679L47.498 9.616ZM43.914 10.344L43.9409 10.5926L43.9447 10.5921L43.914 10.344ZM40.302 14.992L40.508 15.1336L40.7158 14.8314L40.3585 14.7485L40.302 14.992ZM38.552 14.586L38.6085 14.3425L38.4165 14.2979L38.3284 14.4742L38.552 14.586ZM46.224 20.004L46.2672 20.2502L46.4627 20.2159L46.4736 20.0178L46.224 20.004ZM46.322 18.226L46.5716 18.2398L46.5894 17.9176L46.273 17.9809L46.322 18.226ZM42.584 18.576L42.5822 18.826H42.584V18.576ZM42.3491 9.65943C42.5103 10.1029 42.7151 10.7708 43.0239 11.5428L43.4881 11.3572C43.1809 10.5892 42.9937 9.96909 42.8189 9.48856L42.3491 9.65943ZM43.0218 11.5375C43.4626 12.7176 44.0863 13.908 44.5966 14.7442L45.0234 14.4838C44.5257 13.668 43.9174 12.5064 43.4902 11.3625L43.0218 11.5375ZM44.8341 14.3652C44.3826 14.3215 43.4853 14.2541 42.7914 14.1833L42.7406 14.6807C43.4187 14.7499 44.3694 14.8225 44.7859 14.8628L44.8341 14.3652ZM42.5171 14.4085L42.3771 15.8925L42.8749 15.9395L43.0149 14.4555L42.5171 14.4085ZM42.6052 16.1651C43.7834 16.2633 45.5476 16.4444 46.3158 16.5953L46.4122 16.1047C45.6124 15.9476 43.8206 15.7647 42.6468 15.6669L42.6052 16.1651ZM46.5702 16.4913L47.4242 15.2453L47.0118 14.9627L46.1578 16.2087L46.5702 16.4913ZM47.4078 14.9413C47.1549 14.6462 46.9118 14.3622 46.6827 14.0254L46.2693 14.3066C46.5162 14.6698 46.7771 14.9738 47.0282 15.2667L47.4078 14.9413ZM46.6791 14.0203C46.2313 13.3961 45.5835 12.2123 45.1565 11.0554L44.6875 11.2286C45.1285 12.4237 45.7967 13.6479 46.2729 14.3117L46.6791 14.0203ZM45.1561 11.0542C44.824 10.1687 44.4923 9.07621 44.2854 8.0142L43.7946 8.1098C44.0077 9.20379 44.348 10.3233 44.6879 11.2298L45.1561 11.0542ZM44.0106 7.81374L42.1206 8.03774L42.1794 8.53426L44.0694 8.31026L44.0106 7.81374ZM41.9151 8.37143C42.0818 8.8299 42.2483 9.32965 42.3448 9.64679L42.8232 9.50121C42.7237 9.17435 42.5542 8.6661 42.3849 8.20056L41.9151 8.37143ZM37.238 10.2359L37.266 12.0139L37.766 12.0061L37.738 10.2281L37.238 10.2359ZM37.4953 12.2591C40.3795 12.4983 42.6086 12.4425 44.4899 12.2162L44.4301 11.7198C42.5874 11.9415 40.3925 11.9977 37.5367 11.7609L37.4953 12.2591ZM44.4879 12.2164C45.6162 12.0895 46.8351 11.8774 47.7772 11.6062L47.6388 11.1258C46.7329 11.3866 45.5438 11.5945 44.4321 11.7196L44.4879 12.2164ZM47.9562 11.3362L47.7462 9.58621L47.2498 9.64579L47.4598 11.3958L47.9562 11.3362ZM47.4253 9.37679C46.3363 9.70762 45.119 9.94317 43.8833 10.0959L43.9447 10.5921C45.201 10.4368 46.4477 10.1964 47.5707 9.8552L47.4253 9.37679ZM43.8871 10.0955C42.228 10.2752 40.1189 10.2898 37.5172 9.98371L37.4588 10.4803C40.0931 10.7902 42.24 10.7768 43.9409 10.5925L43.8871 10.0955ZM40.3585 14.7485L38.6085 14.3425L38.4955 14.8295L40.2455 15.2355L40.3585 14.7485ZM38.3284 14.4742C37.8447 15.4416 37.56 16.2802 37.56 17.19H38.06C38.06 16.3918 38.3073 15.6344 38.7756 14.6978L38.3284 14.4742ZM37.56 17.19C37.56 18.2914 38.0522 19.1529 38.9274 19.7282C39.7902 20.2952 41.0104 20.576 42.472 20.576V20.076C41.0636 20.076 39.9528 19.8038 39.2021 19.3103C38.4638 18.8251 38.06 18.1186 38.06 17.19H37.56ZM42.472 20.576C44.1846 20.576 45.4597 20.3919 46.2672 20.2502L46.1808 19.7578C45.3923 19.8961 44.1474 20.076 42.472 20.076V20.576ZM46.4736 20.0178L46.5716 18.2398L46.0724 18.2122L45.9744 19.9902L46.4736 20.0178ZM46.273 17.9809C45.3083 18.1738 44.0928 18.326 42.584 18.326V18.826C44.1272 18.826 45.3757 18.6702 46.371 18.4711L46.273 17.9809ZM42.5858 18.326C41.6388 18.3191 40.9473 18.1934 40.5001 17.9504C40.2809 17.8312 40.1258 17.6867 40.0243 17.5179C39.9229 17.3493 39.866 17.1417 39.866 16.882H39.366C39.366 17.2173 39.4404 17.5172 39.5958 17.7756C39.7511 18.0338 39.9784 18.2358 40.2614 18.3896C40.8187 18.6926 41.6112 18.8189 42.5822 18.826L42.5858 18.326ZM39.866 16.882C39.866 16.3458 40.0646 15.7786 40.508 15.1336L40.096 14.8504C39.6154 15.5494 39.366 16.2142 39.366 16.882H39.866ZM54.526 9.504L54.7711 9.55303L54.8302 9.25793L54.5292 9.25402L54.526 9.504ZM52.37 9.476L52.3732 9.22602L52.0563 9.22191L52.1261 9.53106L52.37 9.476ZM52.636 14.684L52.8846 14.658L52.8845 14.657L52.636 14.684ZM58.838 16.518L59.0715 16.6074L59.1239 16.4704L59.0299 16.3578L58.838 16.518ZM57.424 14.824L57.6159 14.6638L57.2972 14.282L57.1809 14.7655L57.424 14.824ZM54.442 14.18L54.1928 14.2005L54.1932 14.2042L54.442 14.18ZM61.526 9.812L61.7187 9.65278L61.6098 9.52096L61.4475 9.57464L61.526 9.812ZM59.748 10.4L59.6695 10.1626L59.3108 10.2813L59.5602 10.5651L59.748 10.4ZM62.24 17.792L61.9911 17.815L62.0218 18.1467L62.3316 18.0246L62.24 17.792ZM64.088 17.064L64.1796 17.2966L64.3505 17.2293L64.3374 17.0461L64.088 17.064ZM54.5292 9.25402L52.3732 9.22602L52.3668 9.72598L54.5228 9.75398L54.5292 9.25402ZM52.1261 9.53106C52.2173 9.93456 52.232 10.5107 52.232 10.89H52.732C52.732 10.5133 52.7187 9.88544 52.6139 9.42093L52.1261 9.53106ZM52.232 10.89C52.232 11.7436 52.2458 13.408 52.3875 14.711L52.8845 14.657C52.7462 13.384 52.732 11.7444 52.732 10.89H52.232ZM52.3874 14.71C52.5855 16.6063 53.0233 17.9359 53.6343 18.7976C54.2536 19.671 55.0484 20.058 55.912 20.058V19.558C55.2216 19.558 54.5744 19.259 54.0422 18.5084C53.5017 17.7461 53.0785 16.5137 52.8846 14.658L52.3874 14.71ZM55.912 20.058C56.5486 20.058 57.1104 19.8136 57.6274 19.2509C58.1338 18.6996 58.5989 17.8418 59.0715 16.6074L58.6045 16.4286C58.1391 17.6442 57.7012 18.4314 57.2591 18.9126C56.8276 19.3824 56.3954 19.558 55.912 19.558V20.058ZM59.0299 16.3578L57.6159 14.6638L57.2321 14.9842L58.6461 16.6782L59.0299 16.3578ZM57.1809 14.7655C57.0496 15.3118 56.8511 15.9833 56.6072 16.5132C56.4847 16.7793 56.3568 16.996 56.2294 17.1425C56.098 17.2935 56.0008 17.332 55.94 17.332V17.832C56.2152 17.832 56.4383 17.664 56.6065 17.4707C56.7788 17.2728 56.9301 17.0075 57.0613 16.7223C57.3249 16.1497 57.5324 15.4422 57.6671 14.8825L57.1809 14.7655ZM55.94 17.332C55.6622 17.332 55.397 17.1212 55.1658 16.544C54.9397 15.9796 54.7883 15.1582 54.6908 14.1558L54.1932 14.2042C54.2917 15.2178 54.4483 16.0974 54.7017 16.73C54.95 17.3498 55.3358 17.832 55.94 17.832V17.332ZM54.6912 14.1595C54.6081 13.1494 54.608 12.1235 54.608 11.212H54.108C54.108 12.1205 54.1079 13.1666 54.1928 14.2005L54.6912 14.1595ZM54.608 11.212C54.608 10.8347 54.6767 10.0253 54.7711 9.55303L54.2809 9.45497C54.1793 9.96273 54.108 10.8053 54.108 11.212H54.608ZM61.4475 9.57464L59.6695 10.1626L59.8265 10.6374L61.6045 10.0494L61.4475 9.57464ZM59.5602 10.5651C60.2885 11.3935 60.8462 12.6346 61.2481 13.9686C61.6486 15.2978 61.8874 16.6951 61.9911 17.815L62.4889 17.769C62.3826 16.6209 62.1384 15.1902 61.7269 13.8244C61.3168 12.4634 60.7335 11.1425 59.9358 10.2349L59.5602 10.5651ZM62.3316 18.0246L64.1796 17.2966L63.9964 16.8314L62.1484 17.5594L62.3316 18.0246ZM64.3374 17.0461C64.2585 15.9486 63.9447 14.5168 63.4848 13.1583C63.0262 11.8036 62.4124 10.4924 61.7187 9.65278L61.3333 9.97122C61.9696 10.7416 62.5598 11.9854 63.0112 13.3187C63.4613 14.6482 63.7635 16.0374 63.8386 17.0819L64.3374 17.0461Z" fill="white"/>
</svg>
