<svg width="82" height="28" viewBox="0 0 82 28" fill="none" xmlns="http://www.w3.org/2000/svg">
<path d="M0 6C0 2.68629 2.68629 0 6 0H76C79.3137 0 82 2.68629 82 6V22C82 25.3137 79.3137 28 76 28H6C2.68629 28 0 25.3137 0 22V6Z" fill="#006D77"/>
<path d="M26.118 7.31V18.146C26.118 18.426 26.006 18.524 25.698 18.524C25.404 18.538 24.354 18.552 23.43 18.496C23.696 18.958 24.018 19.756 24.102 20.246C25.474 20.26 26.44 20.204 27.084 19.924C27.728 19.658 27.966 19.196 27.966 18.16V7.31H26.118ZM29.492 10.992C30.598 13.05 31.662 15.696 31.956 17.39L33.79 16.662C33.44 14.912 32.278 12.35 31.13 10.376L29.492 10.992ZM22.45 10.516C22.156 12.35 21.442 14.814 20.308 16.242C20.77 16.424 21.54 16.816 21.946 17.124C23.122 15.57 23.892 12.952 24.368 10.838L22.45 10.516ZM41.084 9.074C41.252 9.536 41.448 10.18 41.756 10.95C42.19 12.112 42.806 13.288 43.31 14.114C42.876 14.072 41.952 14.002 41.266 13.932L41.126 15.416C42.302 15.514 44.08 15.696 44.864 15.85L45.718 14.604C45.466 14.31 45.214 14.016 44.976 13.666C44.514 13.022 43.856 11.818 43.422 10.642C43.086 9.746 42.75 8.64 42.54 7.562L40.65 7.786C40.818 8.248 40.986 8.752 41.084 9.074ZM35.988 9.732L36.016 11.51C38.886 11.748 41.098 11.692 42.96 11.468C44.08 11.342 45.284 11.132 46.208 10.866L45.998 9.116C44.892 9.452 43.66 9.69 42.414 9.844C40.734 10.026 38.606 10.04 35.988 9.732ZM38.802 14.492L37.052 14.086C36.576 15.038 36.31 15.836 36.31 16.69C36.31 18.72 38.102 19.826 40.972 19.826C42.666 19.826 43.926 19.644 44.724 19.504L44.822 17.726C43.842 17.922 42.61 18.076 41.084 18.076C39.166 18.062 38.116 17.572 38.116 16.382C38.116 15.78 38.34 15.164 38.802 14.492ZM51.626 9.004L49.47 8.976C49.568 9.41 49.582 10.012 49.582 10.39C49.582 11.244 49.596 12.896 49.736 14.184C50.128 17.936 51.458 19.308 53.012 19.308C54.132 19.308 55 18.468 55.938 16.018L54.524 14.324C54.258 15.43 53.712 17.082 53.04 17.082C52.158 17.082 51.738 15.696 51.542 13.68C51.458 12.658 51.458 11.622 51.458 10.712C51.458 10.32 51.528 9.494 51.626 9.004ZM58.626 9.312L56.848 9.9C58.374 11.636 59.13 15.024 59.34 17.292L61.188 16.564C61.034 14.422 59.956 10.922 58.626 9.312Z" fill="white"/>
</svg>
