<svg width="30" height="30" viewBox="0 0 30 30" fill="none" xmlns="http://www.w3.org/2000/svg">
<path d="M30 15C30 23.28 23.28 30 15 30C6.72 30 0 23.28 0 15C0 6.72 6.72 0 15 0C23.28 0 30 6.72 30 15Z" fill="black"/>
<path d="M7.41002 15.51L7.47002 15.42L11.37 9.33C11.43 9.24 11.55 9.24 11.61 9.36C12.27 10.83 12.81 12.63 12.57 13.77C12.45 14.25 12.15 14.88 11.79 15.45C11.76 15.54 11.7 15.63 11.64 15.69C11.61 15.72 11.58 15.75 11.52 15.75H7.50002C7.41002 15.72 7.35002 15.6 7.41002 15.51Z" fill="white"/>
<path d="M24.78 16.65V17.61C24.78 17.67 24.75 17.7 24.6901 17.73C24.3901 17.85 23.34 18.33 22.92 18.93C21.8101 20.46 20.97 22.65 19.11 22.65H11.31C8.55005 22.65 6.30005 20.4 6.30005 17.61V17.52C6.30005 17.46 6.36005 17.4 6.42005 17.4H10.8C10.89 17.4 10.95 17.49 10.95 17.55C10.92 17.82 10.98 18.12 11.1 18.39C11.37 18.93 11.91 19.23 12.48 19.23H14.64V17.55H12.51C12.39 17.55 12.33 17.43 12.39 17.34C12.42 17.31 12.45 17.28 12.48 17.22C12.69 16.92 12.96 16.5 13.26 15.99C13.47 15.66 13.65 15.27 13.8 14.91C13.83 14.85 13.86 14.79 13.89 14.7C13.92 14.58 13.98 14.46 14.01 14.37C14.04 14.28 14.07 14.19 14.1 14.1C14.16 13.8 14.19 13.47 14.19 13.11C14.19 12.99 14.19 12.84 14.16 12.69C14.16 12.54 14.13 12.39 14.13 12.24C14.13 12.12 14.1 11.97 14.07 11.85C14.04 11.64 14.01 11.46 13.95 11.25L13.92 11.19C13.89 11.07 13.86 10.92 13.8 10.8C13.68 10.38 13.53 9.96 13.38 9.6C13.32 9.45 13.26 9.3 13.2 9.15C13.11 8.94 13.02 8.73 12.93 8.55C12.9 8.46 12.84 8.4 12.81 8.31C12.78 8.22 12.72 8.13 12.69 8.04C12.66 7.98 12.63 7.92 12.6 7.86L12.33 7.38C12.3 7.32 12.36 7.23 12.42 7.26L14.07 7.71L14.28 7.77L14.5201 7.83L14.61 7.86V6.87C14.61 6.39 15 6 15.45 6C15.69 6 15.9 6.09 16.05 6.24C16.2 6.39 16.29 6.6 16.29 6.84V8.28L16.47 8.34C16.47 8.34 16.5 8.34 16.5 8.37C16.53 8.4 16.59 8.46 16.68 8.52C16.74 8.58 16.8 8.64 16.89 8.7C17.04 8.82 17.25 9 17.46 9.18C17.52 9.24 17.58 9.27 17.61 9.33C17.88 9.57 18.18 9.87 18.48 10.2C18.57 10.29 18.63 10.38 18.72 10.47C18.8101 10.56 18.87 10.68 18.96 10.77C19.05 10.89 19.17 11.04 19.26 11.16C19.29 11.22 19.35 11.28 19.38 11.37C19.5 11.55 19.59 11.73 19.71 11.91C19.74 12 19.8 12.09 19.83 12.18C19.95 12.42 20.04 12.66 20.0701 12.93C20.1 12.99 20.1 13.05 20.1 13.08C20.13 13.14 20.13 13.23 20.13 13.32C20.16 13.59 20.13 13.83 20.1 14.1C20.07 14.22 20.04 14.31 20.01 14.43C19.98 14.52 19.9501 14.64 19.89 14.76C19.8001 14.97 19.68 15.18 19.56 15.39C19.53 15.45 19.47 15.54 19.41 15.63C19.35 15.72 19.29 15.78 19.26 15.87C19.2 15.96 19.11 16.05 19.05 16.14C18.99 16.23 18.93 16.32 18.84 16.41C18.75 16.53 18.63 16.65 18.54 16.77C18.48 16.83 18.42 16.92 18.33 16.98C18.27 17.04 18.21 17.13 18.12 17.19C18.03 17.28 17.94 17.37 17.85 17.43L17.67 17.58C17.64 17.61 17.61 17.61 17.58 17.61H16.26V19.29H17.91C18.27 19.29 18.63 19.17 18.9 18.93C18.99 18.84 19.41 18.48 19.92 17.94C19.95 17.91 19.95 17.91 19.98 17.91L24.63 16.5C24.72 16.47 24.78 16.56 24.78 16.65Z" fill="white"/>
</svg>
