<svg width="50" height="50" viewBox="0 0 50 50" fill="none" xmlns="http://www.w3.org/2000/svg">
<rect width="50" height="50" rx="5" fill="#006D77"/>
<path d="M22.48 4.6V35.56C22.48 36.36 22.16 36.64 21.28 36.64C20.44 36.68 17.44 36.72 14.8 36.56C15.56 37.88 16.48 40.16 16.72 41.56C20.64 41.6 23.4 41.44 25.24 40.64C27.08 39.88 27.76 38.56 27.76 35.6V4.6H22.48ZM32.12 15.12C35.28 21 38.32 28.56 39.16 33.4L44.4 31.32C43.4 26.32 40.08 19 36.8 13.36L32.12 15.12ZM12 13.76C11.16 19 9.12 26.04 5.88 30.12C7.2 30.64 9.4 31.76 10.56 32.64C13.92 28.2 16.12 20.72 17.48 14.68L12 13.76Z" fill="white"/>
</svg>
