<svg width="42" height="14" viewBox="0 0 42 14" fill="none" xmlns="http://www.w3.org/2000/svg">
<path d="M6.118 0.309999V11.146C6.118 11.426 6.006 11.524 5.698 11.524C5.404 11.538 4.354 11.552 3.43 11.496C3.696 11.958 4.018 12.756 4.102 13.246C5.474 13.26 6.44 13.204 7.084 12.924C7.728 12.658 7.966 12.196 7.966 11.16V0.309999H6.118ZM9.492 3.992C10.598 6.05 11.662 8.696 11.956 10.39L13.79 9.662C13.44 7.912 12.278 5.35 11.13 3.376L9.492 3.992ZM2.45 3.516C2.156 5.35 1.442 7.814 0.308 9.242C0.77 9.424 1.54 9.816 1.946 10.124C3.122 8.57 3.892 5.952 4.368 3.838L2.45 3.516ZM21.084 2.074C21.252 2.536 21.448 3.18 21.756 3.95C22.19 5.112 22.806 6.288 23.31 7.114C22.876 7.072 21.952 7.002 21.266 6.932L21.126 8.416C22.302 8.514 24.08 8.696 24.864 8.85L25.718 7.604C25.466 7.31 25.214 7.016 24.976 6.666C24.514 6.022 23.856 4.818 23.422 3.642C23.086 2.746 22.75 1.64 22.54 0.562L20.65 0.785999C20.818 1.248 20.986 1.752 21.084 2.074ZM15.988 2.732L16.016 4.51C18.886 4.748 21.098 4.692 22.96 4.468C24.08 4.342 25.284 4.132 26.208 3.866L25.998 2.116C24.892 2.452 23.66 2.69 22.414 2.844C20.734 3.026 18.606 3.04 15.988 2.732ZM18.802 7.492L17.052 7.086C16.576 8.038 16.31 8.836 16.31 9.69C16.31 11.72 18.102 12.826 20.972 12.826C22.666 12.826 23.926 12.644 24.724 12.504L24.822 10.726C23.842 10.922 22.61 11.076 21.084 11.076C19.166 11.062 18.116 10.572 18.116 9.382C18.116 8.78 18.34 8.164 18.802 7.492ZM31.626 2.004L29.47 1.976C29.568 2.41 29.582 3.012 29.582 3.39C29.582 4.244 29.596 5.896 29.736 7.184C30.128 10.936 31.458 12.308 33.012 12.308C34.132 12.308 35 11.468 35.938 9.018L34.524 7.324C34.258 8.43 33.712 10.082 33.04 10.082C32.158 10.082 31.738 8.696 31.542 6.68C31.458 5.658 31.458 4.622 31.458 3.712C31.458 3.32 31.528 2.494 31.626 2.004ZM38.626 2.312L36.848 2.9C38.374 4.636 39.13 8.024 39.34 10.292L41.188 9.564C41.034 7.422 39.956 3.922 38.626 2.312Z" fill="white"/>
</svg>
